<svg width="150" height="150" viewBox="0 0 150 150" fill="none" xmlns="http://www.w3.org/2000/svg">
<rect width="150" height="150" rx="6" fill="black" fill-opacity="0.7"/>
<mask id="mask0_625_37894" style="mask-type:alpha" maskUnits="userSpaceOnUse" x="55" y="39" width="40" height="40">
<rect x="55" y="39" width="40" height="40" fill="#D9D9D9"/>
</mask>
<g mask="url(#mask0_625_37894)">
<path d="M63.3333 74C62.4167 74 61.6319 73.6736 60.9792 73.0208C60.3264 72.3681 60 71.5833 60 70.6667V47.3333C60 46.4167 60.3264 45.6319 60.9792 44.9792C61.6319 44.3264 62.4167 44 63.3333 44H78.3333V47.3333H63.3333V70.6667H86.6667V55.6667H90V70.6667C90 71.5833 89.6736 72.3681 89.0208 73.0208C88.3681 73.6736 87.5833 74 86.6667 74H63.3333ZM83.3333 54V50.6667H80V47.3333H83.3333V44H86.6667V47.3333H90V50.6667H86.6667V54H83.3333ZM65 67.3333H85L78.75 59L73.75 65.6667L70 60.6667L65 67.3333Z" fill="white"/>
</g>
<path d="M32.125 96.4205C32.0644 95.8826 31.8144 95.4659 31.375 95.1705C30.9356 94.8712 30.3826 94.7216 29.7159 94.7216C29.2386 94.7216 28.8258 94.7973 28.4773 94.9489C28.1288 95.0966 27.858 95.3011 27.6648 95.5625C27.4754 95.8201 27.3807 96.1136 27.3807 96.4432C27.3807 96.7197 27.4451 96.9583 27.5739 97.1591C27.7064 97.3598 27.8788 97.5284 28.0909 97.6648C28.3068 97.7973 28.5379 97.9091 28.7841 98C29.0303 98.0871 29.267 98.1591 29.4943 98.2159L30.6307 98.5114C31.0019 98.6023 31.3826 98.7254 31.7727 98.8807C32.1629 99.036 32.5246 99.2405 32.858 99.4943C33.1913 99.7481 33.4602 100.062 33.6648 100.438C33.8731 100.812 33.9773 101.261 33.9773 101.784C33.9773 102.443 33.8068 103.028 33.4659 103.54C33.1288 104.051 32.6383 104.455 31.9943 104.75C31.3542 105.045 30.5795 105.193 29.6705 105.193C28.7992 105.193 28.0455 105.055 27.4091 104.778C26.7727 104.502 26.2746 104.11 25.9148 103.602C25.5549 103.091 25.3561 102.485 25.3182 101.784H27.0795C27.1136 102.205 27.25 102.555 27.4886 102.835C27.7311 103.112 28.0398 103.318 28.4148 103.455C28.7936 103.587 29.2083 103.653 29.6591 103.653C30.1553 103.653 30.5966 103.576 30.983 103.42C31.3731 103.261 31.6799 103.042 31.9034 102.761C32.1269 102.477 32.2386 102.146 32.2386 101.767C32.2386 101.422 32.1402 101.14 31.9432 100.92C31.75 100.701 31.4867 100.519 31.1534 100.375C30.8239 100.231 30.4508 100.104 30.0341 99.9943L28.6591 99.6193C27.7273 99.3655 26.9886 98.9924 26.4432 98.5C25.9015 98.0076 25.6307 97.3561 25.6307 96.5455C25.6307 95.875 25.8125 95.2898 26.1761 94.7898C26.5398 94.2898 27.0322 93.9015 27.6534 93.625C28.2746 93.3447 28.9754 93.2045 29.7557 93.2045C30.5436 93.2045 31.2386 93.3428 31.8409 93.6193C32.447 93.8958 32.9242 94.2765 33.2727 94.7614C33.6212 95.2424 33.803 95.7955 33.8182 96.4205H32.125ZM41.4673 101.381V96.2727H43.1719V105H41.5014V103.489H41.4105C41.2098 103.955 40.8878 104.343 40.4446 104.653C40.0052 104.96 39.4579 105.114 38.8026 105.114C38.242 105.114 37.7457 104.991 37.3139 104.744C36.8859 104.494 36.5488 104.125 36.3026 103.636C36.0601 103.148 35.9389 102.544 35.9389 101.824V96.2727H37.6378V101.619C37.6378 102.214 37.8026 102.687 38.1321 103.04C38.4616 103.392 38.8897 103.568 39.4162 103.568C39.7344 103.568 40.0507 103.489 40.3651 103.33C40.6832 103.17 40.9465 102.93 41.1548 102.608C41.367 102.286 41.4711 101.877 41.4673 101.381ZM45.5909 105V93.3636H47.2898V97.6875H47.392C47.4905 97.5057 47.6326 97.2955 47.8182 97.0568C48.0038 96.8182 48.2614 96.6098 48.5909 96.4318C48.9205 96.25 49.3561 96.1591 49.8977 96.1591C50.6023 96.1591 51.2311 96.3371 51.7841 96.6932C52.3371 97.0492 52.7708 97.5625 53.0852 98.233C53.4034 98.9034 53.5625 99.7102 53.5625 100.653C53.5625 101.597 53.4053 102.405 53.0909 103.08C52.7765 103.75 52.3447 104.267 51.7955 104.631C51.2462 104.991 50.6193 105.17 49.9148 105.17C49.3845 105.17 48.9508 105.081 48.6136 104.903C48.2803 104.725 48.0189 104.517 47.8295 104.278C47.6402 104.04 47.4943 103.828 47.392 103.642H47.25V105H45.5909ZM47.2557 100.636C47.2557 101.25 47.3447 101.788 47.5227 102.25C47.7008 102.712 47.9583 103.074 48.2955 103.335C48.6326 103.593 49.0455 103.722 49.5341 103.722C50.0417 103.722 50.4659 103.587 50.8068 103.318C51.1477 103.045 51.4053 102.676 51.5795 102.21C51.7576 101.744 51.8466 101.22 51.8466 100.636C51.8466 100.061 51.7595 99.5436 51.5852 99.0852C51.4148 98.6269 51.1572 98.2652 50.8125 98C50.4716 97.7348 50.0455 97.6023 49.5341 97.6023C49.0417 97.6023 48.625 97.7292 48.2841 97.983C47.947 98.2367 47.6913 98.5909 47.517 99.0455C47.3428 99.5 47.2557 100.03 47.2557 100.636ZM55.4702 105V96.2727H57.169V105H55.4702ZM56.3281 94.9261C56.0327 94.9261 55.7789 94.8277 55.5668 94.6307C55.3584 94.4299 55.2543 94.1913 55.2543 93.9148C55.2543 93.6345 55.3584 93.3958 55.5668 93.1989C55.7789 92.9981 56.0327 92.8977 56.3281 92.8977C56.6236 92.8977 56.8755 92.9981 57.0838 93.1989C57.2959 93.3958 57.402 93.6345 57.402 93.9148C57.402 94.1913 57.2959 94.4299 57.0838 94.6307C56.8755 94.8277 56.6236 94.9261 56.3281 94.9261ZM59.4545 105V96.2727H61.0966V97.6591H61.1875C61.3466 97.1894 61.6269 96.8201 62.0284 96.5511C62.4337 96.2784 62.892 96.142 63.4034 96.142C63.5095 96.142 63.6345 96.1458 63.7784 96.1534C63.9261 96.161 64.0417 96.1705 64.125 96.1818V97.8068C64.0568 97.7879 63.9356 97.767 63.7614 97.7443C63.5871 97.7178 63.4129 97.7045 63.2386 97.7045C62.8371 97.7045 62.4792 97.7898 62.1648 97.9602C61.8542 98.1269 61.608 98.3598 61.4261 98.6591C61.2443 98.9545 61.1534 99.2917 61.1534 99.6705V105H59.4545ZM69.8295 105V96.2727H71.5284V105H69.8295ZM70.6875 94.9261C70.392 94.9261 70.1383 94.8277 69.9261 94.6307C69.7178 94.4299 69.6136 94.1913 69.6136 93.9148C69.6136 93.6345 69.7178 93.3958 69.9261 93.1989C70.1383 92.9981 70.392 92.8977 70.6875 92.8977C70.983 92.8977 71.2348 92.9981 71.4432 93.1989C71.6553 93.3958 71.7614 93.6345 71.7614 93.9148C71.7614 94.1913 71.6553 94.4299 71.4432 94.6307C71.2348 94.8277 70.983 94.9261 70.6875 94.9261ZM73.8139 105V96.2727H75.4446V97.6932H75.5526C75.7344 97.2121 76.0317 96.8371 76.4446 96.5682C76.8575 96.2955 77.3518 96.1591 77.9276 96.1591C78.5109 96.1591 78.9995 96.2955 79.3935 96.5682C79.7912 96.8409 80.0848 97.2159 80.2741 97.6932H80.3651C80.5734 97.2273 80.9048 96.8561 81.3594 96.5795C81.8139 96.2992 82.3556 96.1591 82.9844 96.1591C83.776 96.1591 84.4219 96.4072 84.9219 96.9034C85.4257 97.3996 85.6776 98.1477 85.6776 99.1477V105H83.9787V99.3068C83.9787 98.7159 83.8177 98.2879 83.4957 98.0227C83.1738 97.7576 82.7893 97.625 82.3423 97.625C81.7893 97.625 81.3594 97.7955 81.0526 98.1364C80.7457 98.4735 80.5923 98.9072 80.5923 99.4375V105H78.8991V99.1989C78.8991 98.7254 78.7514 98.3447 78.456 98.0568C78.1605 97.7689 77.776 97.625 77.3026 97.625C76.9806 97.625 76.6832 97.7102 76.4105 97.8807C76.1416 98.0473 75.9238 98.2803 75.7571 98.5795C75.5942 98.8788 75.5128 99.2254 75.5128 99.6193V105H73.8139ZM90.4943 105.193C89.9413 105.193 89.4413 105.091 88.9943 104.886C88.5473 104.678 88.1932 104.377 87.9318 103.983C87.6742 103.589 87.5455 103.106 87.5455 102.534C87.5455 102.042 87.6402 101.636 87.8295 101.318C88.0189 101 88.2746 100.748 88.5966 100.562C88.9186 100.377 89.2784 100.237 89.6761 100.142C90.0739 100.047 90.4792 99.9754 90.892 99.9261C91.4148 99.8655 91.839 99.8163 92.1648 99.7784C92.4905 99.7367 92.7273 99.6705 92.875 99.5795C93.0227 99.4886 93.0966 99.3409 93.0966 99.1364V99.0966C93.0966 98.6004 92.9564 98.2159 92.6761 97.9432C92.3996 97.6705 91.9867 97.5341 91.4375 97.5341C90.8655 97.5341 90.4148 97.661 90.0852 97.9148C89.7595 98.1648 89.5341 98.4432 89.4091 98.75L87.8125 98.3864C88.0019 97.8561 88.2784 97.428 88.642 97.1023C89.0095 96.7727 89.4318 96.5341 89.9091 96.3864C90.3864 96.2348 90.8883 96.1591 91.4148 96.1591C91.7633 96.1591 92.1326 96.2008 92.5227 96.2841C92.9167 96.3636 93.2841 96.5114 93.625 96.7273C93.9697 96.9432 94.2519 97.2519 94.4716 97.6534C94.6913 98.0511 94.8011 98.5682 94.8011 99.2045V105H93.142V103.807H93.0739C92.964 104.027 92.7992 104.242 92.5795 104.455C92.3598 104.667 92.0777 104.843 91.733 104.983C91.3883 105.123 90.9754 105.193 90.4943 105.193ZM90.8636 103.83C91.3333 103.83 91.7348 103.737 92.0682 103.551C92.4053 103.366 92.661 103.123 92.8352 102.824C93.0133 102.521 93.1023 102.197 93.1023 101.852V100.727C93.0417 100.788 92.9242 100.845 92.75 100.898C92.5795 100.947 92.3845 100.991 92.1648 101.028C91.9451 101.062 91.7311 101.095 91.5227 101.125C91.3144 101.152 91.1402 101.174 91 101.193C90.6705 101.235 90.3693 101.305 90.0966 101.403C89.8277 101.502 89.6117 101.644 89.4489 101.83C89.2898 102.011 89.2102 102.254 89.2102 102.557C89.2102 102.977 89.3655 103.295 89.6761 103.511C89.9867 103.723 90.3826 103.83 90.8636 103.83ZM100.723 108.455C100.03 108.455 99.4332 108.364 98.9332 108.182C98.437 108 98.0317 107.759 97.7173 107.46C97.4029 107.161 97.1681 106.833 97.0128 106.477L98.473 105.875C98.5753 106.042 98.7116 106.218 98.8821 106.403C99.0563 106.593 99.2912 106.754 99.5866 106.886C99.8859 107.019 100.27 107.085 100.74 107.085C101.384 107.085 101.916 106.928 102.337 106.614C102.757 106.303 102.967 105.807 102.967 105.125V103.409H102.859C102.757 103.595 102.609 103.801 102.416 104.028C102.227 104.256 101.965 104.453 101.632 104.619C101.299 104.786 100.865 104.869 100.331 104.869C99.6416 104.869 99.0204 104.708 98.4673 104.386C97.9181 104.061 97.4825 103.581 97.1605 102.949C96.8423 102.312 96.6832 101.53 96.6832 100.602C96.6832 99.6742 96.8404 98.8788 97.1548 98.2159C97.473 97.553 97.9086 97.0455 98.4616 96.6932C99.0147 96.3371 99.6416 96.1591 100.342 96.1591C100.884 96.1591 101.321 96.25 101.655 96.4318C101.988 96.6098 102.248 96.8182 102.433 97.0568C102.623 97.2955 102.768 97.5057 102.871 97.6875H102.996V96.2727H104.661V105.193C104.661 105.943 104.486 106.559 104.138 107.04C103.789 107.521 103.318 107.877 102.723 108.108C102.132 108.339 101.465 108.455 100.723 108.455ZM100.706 103.46C101.195 103.46 101.607 103.347 101.945 103.119C102.286 102.888 102.543 102.559 102.717 102.131C102.895 101.699 102.984 101.182 102.984 100.58C102.984 99.9924 102.897 99.4754 102.723 99.0284C102.549 98.5814 102.293 98.233 101.956 97.983C101.619 97.7292 101.202 97.6023 100.706 97.6023C100.195 97.6023 99.7685 97.7348 99.4276 98C99.0866 98.2614 98.8291 98.6174 98.6548 99.0682C98.4844 99.5189 98.3991 100.023 98.3991 100.58C98.3991 101.152 98.4863 101.653 98.6605 102.085C98.8348 102.517 99.0923 102.854 99.4332 103.097C99.7779 103.339 100.202 103.46 100.706 103.46ZM110.7 105.176C109.84 105.176 109.1 104.992 108.479 104.625C107.861 104.254 107.384 103.733 107.047 103.062C106.714 102.388 106.547 101.598 106.547 100.693C106.547 99.7992 106.714 99.0114 107.047 98.3295C107.384 97.6477 107.854 97.1155 108.456 96.733C109.062 96.3504 109.77 96.1591 110.581 96.1591C111.073 96.1591 111.551 96.2405 112.013 96.4034C112.475 96.5663 112.89 96.822 113.257 97.1705C113.625 97.5189 113.914 97.9716 114.126 98.5284C114.339 99.0814 114.445 99.7538 114.445 100.545V101.148H107.507V99.875H112.78C112.78 99.428 112.689 99.0322 112.507 98.6875C112.325 98.339 112.07 98.0644 111.74 97.8636C111.414 97.6629 111.032 97.5625 110.592 97.5625C110.115 97.5625 109.698 97.6799 109.342 97.9148C108.99 98.1458 108.717 98.4489 108.524 98.8239C108.335 99.1951 108.24 99.5985 108.24 100.034V101.028C108.24 101.612 108.342 102.108 108.547 102.517C108.755 102.926 109.045 103.239 109.416 103.455C109.787 103.667 110.221 103.773 110.717 103.773C111.039 103.773 111.333 103.727 111.598 103.636C111.863 103.542 112.092 103.402 112.286 103.216C112.479 103.03 112.626 102.801 112.729 102.528L114.337 102.818C114.208 103.292 113.977 103.706 113.643 104.062C113.314 104.415 112.899 104.689 112.399 104.886C111.903 105.08 111.337 105.176 110.7 105.176ZM118.028 99.8182V105H116.33V96.2727H117.96V97.6932H118.068C118.269 97.2311 118.583 96.8598 119.011 96.5795C119.443 96.2992 119.987 96.1591 120.642 96.1591C121.237 96.1591 121.758 96.2841 122.205 96.5341C122.652 96.7803 122.998 97.1477 123.244 97.6364C123.491 98.125 123.614 98.7292 123.614 99.4489V105H121.915V99.6534C121.915 99.0208 121.75 98.5265 121.42 98.1705C121.091 97.8106 120.638 97.6307 120.062 97.6307C119.669 97.6307 119.318 97.7159 119.011 97.8864C118.708 98.0568 118.468 98.3068 118.29 98.6364C118.116 98.9621 118.028 99.3561 118.028 99.8182Z" fill="white"/>
</svg>
